<?xml version="1.0" encoding="utf-8"?>
<svg viewBox="0 0 500 500" xmlns="http://www.w3.org/2000/svg">
  <g transform="matrix(0.653962, 0, 0, 0.686493, 145.687546, 99.647652)" style="">
    <path class="st1" d="M129.61,130.42c-0.23-0.07-0.46-0.15-0.69-0.23c-8.57-3.17-9.98-13.88-8.59-17.24 c1.26-3.03,3.1,1.23,5.27,5.24c2.69,4.96,6.93,4.56,6.93,4.56C132.72,126.65,129.61,130.42,129.61,130.42z" style="fill: rgb(51, 105, 171);"/>
    <path class="st1" d="M152.94,120.46c-0.59,1.34-0.81,2.79-0.69,4.22c0.07,0.78,0.23,1.56,0.5,2.32c0.6,1.68,0.93,3.53,0.93,5.46 c0,2.42-0.52,4.7-1.43,6.7c0,0,0,0,0,0c-2.09,4.58-6.24,7.7-11.03,7.7c-6.88,0-12.46-6.45-12.46-14.4c0-2.47,0.54-4.8,1.49-6.83 c0.94-2,1.15-4.27,0.55-6.4c-0.36-1.26-0.49-2.63-0.34-4.06c0.72-6.67,6.07-12.38,12.53-11.77c6.45,0.61,11.77,6.26,11.04,12.93 C153.88,117.8,153.5,119.19,152.94,120.46z" style="fill: rgb(51, 105, 171);"/>
    <path class="st2" d="M152.42,133.26c-0.49,7.22-6.03,11.51-12.03,11.11c-2.56-0.17-4.79-1.17-6.47-2.82c0,0,0,0,0,0 c-2.26-2.22-3.52-5.61-3.24-9.75c0.25-3.66,1.73-6.89,3.91-9.13c0.63-0.65,0.52-1.69-0.22-2.21c-0.7-0.49-1.27-1.16-1.62-2 c-0.85-2.05-0.75-4.47,0.18-6.49c0.95-2.07,2.98-4.06,5.39-4.04c2.32,0.02,3.51,1.59,4.08,3.62c0.59-1.44,1.57-2.71,3.21-2.99 c2.1-0.36,4.08,1.04,5.25,2.68c1.66,2.34,1.59,5.87,0.41,8.39c-0.31,0.65-0.81,1.16-1.41,1.55c-0.73,0.47-0.9,1.46-0.35,2.14 C151.53,125.85,152.68,129.41,152.42,133.26z" style="fill: rgb(230, 231, 231);"/>
    <g>
      <path class="st3" d="M136.8,117.08c-0.02-0.01-0.03-0.02-0.05-0.03c-0.43-0.33-0.43-0.8,0.03-1.07c0.5-0.29,1.26-0.31,1.85-0.48 c0.99-0.29,1.31-0.95,2.05-1.45c1.01-0.67,2.05-0.39,2.85,0.42c0.73,0.74,1.57,1.44,2.57,1.97c0.45,0.24,1.24,0.57,1.26,1.03 c0.02,0.55-0.81,0.6-1.35,0.8c-1.14,0.42-1.19,1.27-2.03,1.87c-1.57,1.12-4.28,0.76-5.37-0.75c-0.46-0.63-0.42-1.55-1.21-1.97 C137.2,117.3,136.98,117.21,136.8,117.08z" style="fill: rgb(233, 181, 46);"/>
      <path class="st4" d="M143.75,114.68c-0.93-0.8-2.11-1.08-3.22-0.45c-0.16,0.09-0.31,0.19-0.44,0.3c0.18-0.17,0.37-0.34,0.6-0.49 c1.01-0.67,2.05-0.39,2.85,0.42C143.6,114.53,143.67,114.61,143.75,114.68z" style="fill: rgb(204, 149, 43);"/>
      <path class="st4" d="M146.01,118.27c-1.14,0.42-1.19,1.27-2.03,1.87c-1.57,1.12-4.28,0.76-5.37-0.75 c-0.46-0.63-0.42-1.55-1.21-1.97c-0.2-0.11-0.42-0.21-0.61-0.34c-0.02-0.01-0.03-0.02-0.05-0.04c-0.33-0.25-0.41-0.59-0.21-0.86 c0.03,0.16,0.13,0.32,0.3,0.45c0.02,0.01,0.03,0.02,0.05,0.04c0.18,0.13,0.39,0.23,0.6,0.34c0.78,0.43,0.73,1.37,1.18,2.01 c1.06,1.54,3.74,1.89,5.3,0.73c0.83-0.62,0.89-1.5,2.02-1.93c0.46-0.18,1.12-0.24,1.3-0.61c0.05,0.08,0.09,0.17,0.09,0.26 C147.38,118.02,146.55,118.07,146.01,118.27z" style="fill: rgb(204, 149, 43);"/>
      <path class="st4" d="M140.51,115.45c0.04-0.06,0.09-0.11,0.15-0.16c0.05-0.05,0.11-0.09,0.17-0.13c0.12-0.08,0.25-0.15,0.39-0.2 c0.28-0.1,0.58-0.13,0.88-0.09c0.07,0.01,0.15,0.03,0.22,0.05c0.07,0.02,0.14,0.04,0.21,0.07l0.1,0.04 c0.02,0.01,0.03,0.01,0.05,0.02l0.05,0.03l0.1,0.05l0.09,0.06c0.24,0.16,0.46,0.36,0.63,0.58c-0.24-0.16-0.47-0.31-0.72-0.42 l-0.09-0.04l-0.09-0.04l-0.05-0.02l-0.05-0.02l-0.09-0.03c-0.06-0.02-0.13-0.04-0.19-0.05c-0.06-0.02-0.13-0.03-0.19-0.04 c-0.26-0.04-0.53-0.03-0.79,0.03c-0.13,0.03-0.26,0.07-0.39,0.12C140.76,115.31,140.63,115.37,140.51,115.45z" style="fill: rgb(204, 149, 43);"/>
      <g>
        <path class="st5" d="M144.95,117.1c-0.09,0-0.61,0.07-1.45,1.24c0,0,0,0,0,0c0,0,0,0,0,0c-0.03,0.04-0.06,0.09-0.09,0.13 c0,0,0,0.01-0.01,0.01c-0.08,0.11-0.16,0.21-0.24,0.3c0,0-0.01,0.01-0.01,0.01c-0.95,1.01-2.27,0.62-2.63,0.28 c-0.01-0.01-0.03-0.03-0.04-0.04c-0.1-0.12-0.2-0.32-0.31-0.54c-0.02-0.03-0.03-0.07-0.05-0.1c0,0,0,0,0,0 c-0.31-0.67-0.67-1.55-1.27-1.81c0,0,0.35,0.09,1.13-0.25c0.78-0.34,2.14-1.08,3.85,0.36 C143.85,116.69,144.54,117.08,144.95,117.1z" style="fill: rgb(124, 24, 22);"/>
        <path class="st4" d="M141.68,119.64c-0.58,0-1.07-0.22-1.28-0.43c-0.02-0.02-0.04-0.04-0.05-0.06c-0.12-0.15-0.23-0.37-0.33-0.58 l-0.01-0.03c-0.01-0.02-0.02-0.04-0.03-0.06l-0.04-0.05l0.01-0.03l-0.04-0.1c-0.27-0.6-0.62-1.35-1.1-1.56l0.13-0.37l0,0 c0,0,0.32,0.06,1.01-0.24c0.05-0.02,0.09-0.04,0.14-0.06c0.83-0.37,2.21-0.98,3.9,0.44c0.19,0.11,0.71,0.37,1,0.37l0,0.39 c-0.02,0-0.47,0.02-1.27,1.13l0,0.01l-0.03,0.03c-0.02,0.03-0.04,0.06-0.06,0.08l-0.04,0.05c-0.08,0.11-0.16,0.22-0.25,0.32 l-0.01,0.01c-0.54,0.57-1.15,0.7-1.58,0.71C141.71,119.64,141.69,119.64,141.68,119.64z M140.35,118.38l0.01,0.03 c0.08,0.17,0.19,0.39,0.28,0.5c0.01,0.01,0.01,0.02,0.02,0.02c0.13,0.13,0.53,0.33,1.05,0.31c0.35-0.01,0.85-0.11,1.29-0.58 l0.01-0.01c0.08-0.09,0.16-0.18,0.22-0.28l0.03-0.05c0.02-0.02,0.03-0.05,0.05-0.07l0.02-0.03c0.4-0.56,0.74-0.89,1-1.07 c-0.3-0.12-0.55-0.26-0.6-0.29l-0.03-0.02c-1.51-1.28-2.7-0.74-3.49-0.39c-0.05,0.02-0.1,0.04-0.14,0.06 c-0.27,0.12-0.49,0.18-0.67,0.22c0.36,0.38,0.62,0.94,0.84,1.42l0.06,0.14l0.05,0.06L140.35,118.38z" style="fill: rgb(204, 149, 43);"/>
      </g>
      <path class="st6" d="M143.39,118.21C143.39,118.21,143.39,118.21,143.39,118.21C143.39,118.21,143.39,118.21,143.39,118.21 c-0.01,0.02-0.04,0.07-0.09,0.14c0,0,0,0.01-0.01,0.01c-0.06,0.08-0.13,0.19-0.23,0.3c0,0-0.01,0.01-0.01,0.01 c-0.9,1.01-2.12,0.65-2.44,0.31c-0.11-0.16-0.21-0.34-0.31-0.57c-0.01-0.03-0.03-0.06-0.04-0.1c0,0,0,0,0,0 c-0.04-0.11,0.03-0.33,0.06-0.44c0.04-0.15,0.12-0.29,0.24-0.4c0.32-0.29,0.91-0.16,1.16,0.13c0.03,0.04,0.14,0.18,0.11,0.23 c0.25-0.48,0.93-0.33,1.27-0.06c0.06,0.05,0.12,0.1,0.16,0.16C143.3,117.95,143.42,118.15,143.39,118.21z" style="fill: rgb(219, 31, 38);"/>
      <path class="st4" d="M138.77,116.25c0.07,0.01,0.13,0.05,0.17,0.11c0.04,0.06,0.05,0.13,0.05,0.21c0,0.02-0.01,0.03-0.01,0.05 c0,0.02-0.01,0.03-0.02,0.05c-0.01,0.03-0.03,0.06-0.05,0.09c-0.02,0.03-0.05,0.05-0.07,0.06c-0.01,0.01-0.03,0.02-0.05,0.02 c-0.02,0.01-0.03,0.01-0.05,0.02c0-0.02,0-0.04,0-0.05c0-0.02,0-0.03,0-0.05c0-0.03,0-0.06,0.01-0.08c0-0.05,0.01-0.09,0.01-0.13 c0-0.04,0.01-0.08,0.01-0.12C138.77,116.38,138.77,116.33,138.77,116.25z" style="fill: rgb(204, 149, 43);"/>
      <path class="st4" d="M145.04,116.76c0,0.04,0,0.07,0.01,0.1c0,0.03,0,0.06,0,0.09c0,0.06,0,0.11-0.01,0.17 c0,0.05-0.01,0.11-0.03,0.17c-0.01,0.03-0.01,0.06-0.03,0.09c-0.01,0.03-0.02,0.06-0.04,0.1c-0.06-0.05-0.09-0.11-0.12-0.18 c-0.02-0.06-0.03-0.13-0.02-0.2c0.01-0.07,0.03-0.13,0.06-0.19c0.02-0.03,0.04-0.06,0.07-0.08c0.01-0.01,0.03-0.02,0.04-0.03 C145,116.78,145.02,116.77,145.04,116.76z" style="fill: rgb(204, 149, 43);"/>
    </g>
    <path class="st3" d="M132.16,146.18c0.13-0.08,3.69-2.34-1.85-11.44c-0.37-0.6-1.23-0.65-1.66-0.09c-0.28,0.36-0.52,0.94-0.6,1.87 c0,0-0.02,0.55-0.69,0.46c-0.85-0.12-1.54-1.45-2.46,0c-0.89,1.41,0.85,2.6,0,3.26c-0.85,0.66-2.08,0.29-2.24,1.46 S128.84,148.2,132.16,146.18z" style="fill: rgb(233, 181, 46);"/>
    <path class="st4" d="M129.98,144.97c-1.04,0-2.41-0.54-3.77-1.49c-1.27-0.89-1.95-1.71-2.04-1.97c0.03-0.15,0.08-0.2,0.55-0.32 c0.32-0.08,0.71-0.19,1.07-0.47c0.66-0.51,0.37-1.24,0.2-1.67c-0.19-0.48-0.3-0.79-0.07-1.15c0.17-0.26,0.26-0.29,0.26-0.29 c0.07,0,0.25,0.11,0.37,0.19c0.24,0.15,0.5,0.31,0.83,0.36c0.07,0.01,0.14,0.01,0.2,0.01c0,0,0,0,0,0c0.62,0,0.98-0.46,1.01-0.9 c0.07-0.7,0.25-1.06,0.38-1.24c0.07-0.09,0.16-0.1,0.21-0.1c0.05,0,0.16,0.01,0.23,0.13c2.25,3.69,2.56,5.87,2.43,7.05 c-0.13,1.18-0.71,1.56-0.73,1.57C130.81,144.87,130.43,144.97,129.98,144.97C129.98,144.97,129.98,144.97,129.98,144.97z" style="fill: rgb(204, 149, 43);"/>
    <circle class="st7" cx="138.16" cy="112.39" r="1.77" style="fill: rgb(35, 31, 32);"/>
    <path class="st0" d="M138.68,112.69c-0.42,0-0.75-0.34-0.75-0.75s0.34-0.75,0.75-0.75c0.42,0,0.75,0.34,0.75,0.75 S139.09,112.69,138.68,112.69z" style="fill: rgb(255, 255, 255);"/>
    <circle class="st7" cx="146.39" cy="113.31" r="1.77" style="fill: rgb(35, 31, 32);"/>
    <path class="st0" d="M146.9,113.6c-0.42,0-0.75-0.34-0.75-0.75s0.34-0.75,0.75-0.75c0.42,0,0.75,0.34,0.75,0.75 S147.32,113.6,146.9,113.6z" style="fill: rgb(255, 255, 255);"/>
    <path class="st8" d="M152.42,133.26c-0.49,7.22-6.03,11.51-12.03,11.11c-2.56-0.17-4.79-1.17-6.47-2.82c0,0,0,0,0,0 c5.92,3.32,10.41,1.15,10.41,1.15c-1.07-0.12-1.25-0.55-1.25-0.55c-2.86-5.14,5.7-8.4,7.21-12.08c1.51-3.68-2.13-6.5-2.13-6.5 c-6.07,2.74-8.73-0.83-8.73-0.83c6.19,1.25,8.24,0.24,10.3-2.68c2.07-2.92,2.11-6.66-0.88-9.62c-2.98-2.96-6.46,1.11-6.46,1.11 c0.59-1.44,1.57-2.71,3.21-2.99c2.1-0.36,4.08,1.04,5.25,2.68c1.66,2.34,1.59,5.87,0.41,8.39c-0.31,0.65-0.81,1.16-1.41,1.55 c-0.73,0.47-0.9,1.46-0.35,2.14C151.53,125.85,152.68,129.41,152.42,133.26z" style="fill: rgb(210, 211, 212);"/>
    <path class="st1" d="M154.59,136.75c-0.12,0.57-0.28,1.13-0.47,1.67c0,0,0,0,0,0s-4.82,4.45-8.76,3.62 c-1.39-0.29-1.89-0.99-1.78-1.91v0c0.19-1.64,2.3-3.98,4.72-5.96c3.78-3.09,3.84-10.09,3.84-10.09c0.18,0.77,0.47,1.51,0.87,2.22 c0.89,1.58,1.51,3.35,1.77,5.27C155.03,133.35,154.95,135.1,154.59,136.75z" style="fill: rgb(51, 105, 171);"/>
    <path class="st1" d="M141.87,103.82c0,0,2.1,0.39,2.36-1.9c0.23-1.96-0.57-2.17-0.57-2.17s1.42,0.16,1.89,1.93l0.61-0.82 c0,0,0.28,0.52,0,1.75c-0.38,1.62,0.71,2.96,0.71,2.96L141.87,103.82z" style="fill: rgb(51, 105, 171);"/>
    <path class="st9" d="M154.59,136.75c-0.12,0.57-0.28,1.13-0.47,1.67c0,0,0,0,0,0s-4.82,4.45-8.76,3.62 c-1.39-0.29-1.89-0.99-1.78-1.91v0c0,0,0.88,2.01,4.22,0.8C149.6,140.28,152.82,138.22,154.59,136.75z" style="fill: rgb(27, 80, 133);"/>
    <path class="st3" d="M149.73,146.41c-0.13-0.08-3.69-2.34,1.85-11.44c0.37-0.6,1.23-0.65,1.66-0.09c0.28,0.36,0.52,0.94,0.6,1.87 c0,0,0.02,0.55,0.69,0.46c0.85-0.12,1.54-1.45,2.46,0c0.89,1.41-0.85,2.6,0,3.26s2.08,0.29,2.24,1.46S153.05,148.43,149.73,146.41z " style="fill: rgb(233, 181, 46);"/>
    <path class="st4" d="M151.91,144.97c-0.44,0-0.83-0.1-1.14-0.29c-0.02-0.01-0.6-0.4-0.73-1.57c-0.13-1.18,0.19-3.37,2.43-7.05 c0.07-0.12,0.18-0.13,0.23-0.13c0.05,0,0.14,0.01,0.21,0.1c0.14,0.18,0.31,0.54,0.38,1.24c0.03,0.44,0.38,0.9,1.01,0.9 c0.06,0,0.13,0,0.2-0.01c0.33-0.05,0.6-0.21,0.83-0.36c0.12-0.08,0.31-0.19,0.37-0.19c0,0,0.09,0.03,0.26,0.29 c0.23,0.36,0.12,0.67-0.07,1.15c-0.17,0.43-0.46,1.16,0.2,1.67c0.36,0.28,0.75,0.38,1.07,0.47c0.47,0.12,0.52,0.17,0.55,0.32 c-0.09,0.26-0.76,1.08-2.04,1.97C154.32,144.42,152.95,144.97,151.91,144.97z" style="fill: rgb(204, 149, 43);"/>
    <path class="st9" d="M129.83,126.66c0,0-0.75,1.59-0.9,3.53c-8.57-3.17-9.98-13.88-8.59-17.24 C120.34,112.95,122.22,125.24,129.83,126.66z" style="fill: rgb(27, 80, 133);"/>
    <path class="st7" d="M146.33,109.73c-0.15-0.01-0.29,0.01-0.41,0.09c-0.19,0.13-0.23,0.34-0.01,0.47c0.07,0.04,0.16,0.06,0.24,0.08 c0.71,0.16,1.39,0.33,2.08,0.54c0.05,0.01,0.09,0.03,0.14,0.02c0.39-0.05-0.28-0.53-0.37-0.58c-0.43-0.25-0.88-0.49-1.37-0.58 C146.53,109.76,146.43,109.74,146.33,109.73z" style="fill: rgb(35, 31, 32);"/>
    <path class="st7" d="M139.05,109.03c0.14,0.02,0.28,0.06,0.39,0.17c0.17,0.17,0.17,0.38-0.08,0.47c-0.08,0.03-0.17,0.03-0.25,0.04 c-0.72,0.02-1.42,0.07-2.14,0.14c-0.05,0-0.1,0.01-0.14-0.01c-0.37-0.12,0.38-0.47,0.47-0.5c0.47-0.17,0.95-0.32,1.46-0.32 C138.85,109.02,138.95,109.02,139.05,109.03z" style="fill: rgb(35, 31, 32);"/>
  </g>
  <g transform="matrix(1.362587, 0, 0.16023, 1.324776, 83.539368, -37.831638)" style="">
    <path class="st7" d="M 103.977 162.245 C 104.187 161.655 104.567 160.805 104.877 160.335 L 105.077 160.335 C 105.517 160.335 105.677 160.705 105.747 160.855 L 105.587 160.855 C 105.587 160.985 105.647 161.165 105.717 161.165 C 106.027 161.165 106.287 160.885 106.637 160.765 C 106.847 160.695 107.177 160.645 107.297 160.645 C 107.537 160.645 107.817 161.305 107.917 161.605 C 107.807 161.615 107.717 161.695 107.807 161.805 C 107.637 162.075 107.477 162.535 107.267 162.515 C 107.127 162.505 106.757 162.915 106.637 162.905 C 106.427 162.885 106.277 163.115 106.057 163.295 L 105.977 163.235 C 105.857 163.325 105.597 163.485 105.497 163.625 L 105.537 163.655 C 105.897 163.635 106.407 163.575 106.807 163.575 C 107.347 163.575 107.787 163.885 108.127 164.145 C 108.297 164.415 108.507 165.015 108.617 165.365 C 108.537 165.405 108.477 165.355 108.397 165.385 C 108.237 165.615 107.277 166.365 107.217 166.365 C 106.977 166.355 106.687 166.435 106.437 166.555 L 106.477 166.725 C 106.217 166.955 105.807 167.045 105.657 166.895 C 105.597 166.955 105.567 167.075 105.537 167.165 C 104.347 167.805 103.477 168.025 103.607 168.265 C 103.527 168.335 103.447 168.355 103.377 168.355 C 103.137 168.355 102.947 168.025 102.617 167.975 C 102.637 167.855 102.637 167.725 102.507 167.785 C 102.537 167.625 102.507 167.385 102.447 167.225 C 102.637 167.135 102.847 167.045 103.037 166.945 C 102.837 166.885 102.707 166.685 102.547 166.625 L 102.647 166.455 C 102.537 166.365 102.507 166.285 102.457 166.185 L 103.587 163.155 C 103.407 163.065 103.377 162.895 103.397 162.695 L 103.977 162.245 Z M 103.527 166.425 L 103.607 166.465 L 103.697 166.345 C 103.627 166.315 103.587 166.355 103.527 166.425 Z M 104.367 164.625 C 104.247 164.625 104.227 164.705 104.167 164.705 L 104.277 164.795 C 104.217 164.895 104.147 165.005 104.067 165.005 C 104.177 165.165 104.097 165.335 104.007 165.565 C 103.917 165.645 103.797 165.695 103.747 165.795 C 103.887 165.795 103.847 165.865 103.807 165.905 C 103.697 165.995 103.627 166.065 103.747 166.275 L 103.937 166.045 L 103.927 166.385 L 103.847 166.385 C 103.827 166.445 103.807 166.505 103.807 166.585 C 104.297 166.365 104.697 166.215 104.807 166.325 C 104.867 166.185 105.067 166.085 105.307 165.945 C 105.417 166.145 105.467 165.925 105.577 165.925 C 105.667 165.925 105.787 165.955 105.837 165.765 C 106.317 165.545 106.847 165.275 107.267 164.725 C 106.277 164.345 105.857 164.785 104.947 164.785 C 104.717 164.775 104.497 164.625 104.367 164.625 Z M 103.847 165.285 C 103.847 165.355 103.817 165.445 103.767 165.485 L 103.807 165.565 C 103.897 165.485 103.967 165.375 103.967 165.285 L 103.847 165.285 Z M 104.017 165.855 C 103.987 165.835 103.977 165.815 103.997 165.765 C 104.007 165.675 104.127 165.545 104.197 165.485 L 104.017 165.855 Z M 104.167 167.475 C 104.187 167.495 104.207 167.515 104.227 167.535 C 104.247 167.545 104.267 167.545 104.287 167.545 C 104.307 167.545 104.347 167.525 104.377 167.485 L 104.167 167.475 Z M 104.217 165.385 C 104.157 165.365 104.257 165.055 104.337 164.905 L 104.407 164.965 L 104.217 165.385 Z M 104.447 167.325 C 104.447 167.385 104.517 167.465 104.637 167.465 C 104.757 167.465 104.777 167.325 104.727 167.325 C 104.607 167.365 104.497 167.335 104.447 167.325 Z M 106.377 166.635 C 106.277 166.625 106.107 166.675 106.057 166.725 C 106.117 166.755 106.167 166.765 106.227 166.765 C 106.277 166.765 106.327 166.725 106.377 166.635 Z M 106.227 164.355 L 106.217 164.445 C 106.327 164.465 106.437 164.455 106.447 164.385 L 106.227 164.355 Z M 106.597 166.685 C 106.597 166.575 106.677 166.505 106.807 166.505 C 106.847 166.505 106.887 166.515 106.917 166.535 L 106.597 166.685 Z M 107.157 166.185 L 106.977 166.245 C 106.967 166.325 107.137 166.305 107.177 166.285 L 107.157 166.185 Z M 107.997 165.585 L 108.207 165.405 C 108.147 165.325 107.997 165.445 107.917 165.495 L 107.997 165.585 Z" style="fill: rgb(51, 105, 171);"/>
    <path class="st7" d="M 114.137 165.205 C 114.047 165.395 114.077 165.885 113.847 166.105 C 114.007 166.195 113.917 166.475 113.767 166.605 C 113.837 166.775 113.877 166.895 113.647 167.205 C 113.637 167.245 113.747 167.195 113.767 167.175 C 113.747 167.555 113.657 167.855 113.547 168.185 C 113.207 168.185 112.887 167.855 112.717 167.915 C 112.727 167.695 112.697 167.605 112.537 167.605 L 112.547 167.445 C 112.607 167.445 112.647 167.415 112.657 167.335 C 112.597 167.335 112.557 167.305 112.557 167.225 C 112.577 166.975 112.717 166.645 112.777 166.315 C 112.857 166.315 112.857 166.455 112.847 166.625 C 112.927 166.625 113.047 166.165 113.067 165.915 L 112.937 165.855 C 112.927 166.035 112.927 166.275 112.797 166.225 C 112.827 166.065 112.867 165.685 112.897 165.545 L 113.087 165.775 C 113.077 165.645 113.127 165.605 113.107 165.445 C 112.477 165.425 110.797 166.325 110.297 166.665 L 110.237 166.805 L 110.277 166.935 C 110.087 167.325 109.917 167.775 109.747 168.015 L 109.047 167.715 C 109.017 167.375 108.537 167.225 108.657 166.935 L 108.477 166.935 C 108.717 165.255 110.577 163.455 111.617 162.055 C 112.137 161.365 112.657 160.895 113.097 160.555 C 113.177 160.485 113.487 160.595 113.507 160.385 C 113.647 160.425 113.967 160.565 114.127 160.695 L 113.927 160.765 C 113.917 160.955 114.197 160.745 114.247 160.785 C 114.657 161.145 114.427 161.745 114.637 162.065 C 114.647 162.125 114.627 163.075 114.457 163.175 C 114.477 163.195 114.487 163.195 114.527 163.215 C 114.457 163.455 114.367 163.785 114.347 164.095 C 114.337 164.225 114.757 164.605 114.727 165.095 C 114.537 165.135 114.327 165.175 114.137 165.205 Z M 110.617 166.085 C 110.557 166.165 110.537 166.205 110.497 166.285 L 111.337 165.845 C 111.197 165.735 110.827 165.975 110.617 166.085 Z M 111.097 165.625 C 111.007 165.655 110.937 165.665 110.867 165.705 L 110.737 165.895 C 110.767 165.865 111.027 165.775 111.097 165.625 Z M 113.807 161.825 C 113.597 161.835 113.087 162.455 112.607 163.095 L 112.547 163.035 C 112.577 162.945 112.617 162.875 112.567 162.835 C 112.387 163.035 112.307 163.135 112.407 163.345 C 112.237 163.565 112.087 163.765 111.937 163.945 C 111.737 164.195 111.437 164.675 111.177 165.045 C 111.397 164.915 111.567 164.675 112.007 164.485 C 112.397 164.315 112.627 164.275 113.027 164.165 C 113.057 163.875 113.167 163.665 113.217 163.505 L 113.407 163.675 C 113.537 163.335 113.697 162.435 113.817 161.935 L 113.807 161.825 Z M 111.857 165.575 L 111.857 165.565 C 111.617 165.575 111.517 165.595 111.467 165.775 C 111.567 165.725 111.737 165.655 111.857 165.575 Z M 112.837 166.705 L 112.797 166.845 L 112.867 166.845 L 112.907 166.665 L 112.837 166.705 Z M 113.177 164.025 C 113.137 164.155 113.207 164.155 113.287 164.145 L 113.297 164.025 L 113.177 164.025 Z M 113.277 163.845 L 113.237 163.835 L 113.197 163.955 L 113.297 163.955 L 113.277 163.845 Z M 113.607 162.475 L 113.507 162.475 L 113.597 162.175 L 113.697 162.135 L 113.607 162.475 Z" style="fill: rgb(51, 105, 171);"/>
    <path class="st7" d="M 117.137 162.245 C 117.347 161.655 117.727 160.805 118.037 160.335 L 118.237 160.335 C 118.677 160.335 118.837 160.705 118.907 160.855 L 118.747 160.855 C 118.747 160.985 118.807 161.165 118.877 161.165 C 119.187 161.165 119.447 160.885 119.797 160.765 C 120.007 160.695 120.337 160.645 120.457 160.645 C 120.697 160.645 120.977 161.305 121.077 161.605 C 120.967 161.615 120.877 161.695 120.967 161.805 C 120.797 162.075 120.637 162.535 120.427 162.515 C 120.287 162.505 119.917 162.915 119.797 162.905 C 119.587 162.885 119.437 163.115 119.217 163.295 L 119.137 163.235 C 119.017 163.325 118.757 163.485 118.657 163.625 L 118.697 163.655 C 119.057 163.635 119.567 163.575 119.967 163.575 C 120.507 163.575 120.947 163.885 121.287 164.145 C 121.457 164.415 121.667 165.015 121.777 165.365 C 121.697 165.405 121.637 165.355 121.557 165.385 C 121.397 165.615 120.437 166.365 120.377 166.365 C 120.137 166.355 119.847 166.435 119.597 166.555 L 119.637 166.725 C 119.377 166.955 118.967 167.045 118.817 166.895 C 118.757 166.955 118.727 167.075 118.697 167.165 C 117.507 167.805 116.637 168.025 116.767 168.265 C 116.687 168.335 116.607 168.355 116.537 168.355 C 116.297 168.355 116.107 168.025 115.777 167.975 C 115.797 167.855 115.797 167.725 115.667 167.785 C 115.697 167.625 115.667 167.385 115.607 167.225 C 115.797 167.135 116.007 167.045 116.197 166.945 C 115.997 166.885 115.867 166.685 115.707 166.625 L 115.807 166.455 C 115.697 166.365 115.667 166.285 115.617 166.185 L 116.747 163.155 C 116.567 163.065 116.537 162.895 116.557 162.695 L 117.137 162.245 Z M 116.687 166.425 L 116.767 166.465 L 116.857 166.345 C 116.787 166.315 116.747 166.355 116.687 166.425 Z M 117.527 164.625 C 117.407 164.625 117.387 164.705 117.327 164.705 L 117.437 164.795 C 117.377 164.895 117.307 165.005 117.227 165.005 C 117.337 165.165 117.257 165.335 117.167 165.565 C 117.077 165.645 116.957 165.695 116.907 165.795 C 117.047 165.795 117.007 165.865 116.967 165.905 C 116.857 165.995 116.787 166.065 116.907 166.275 L 117.097 166.045 L 117.087 166.385 L 117.007 166.385 C 116.987 166.445 116.967 166.505 116.967 166.585 C 117.457 166.365 117.857 166.215 117.967 166.325 C 118.027 166.185 118.227 166.085 118.467 165.945 C 118.577 166.145 118.627 165.925 118.737 165.925 C 118.827 165.925 118.947 165.955 118.997 165.765 C 119.477 165.545 120.007 165.275 120.427 164.725 C 119.437 164.345 119.017 164.785 118.107 164.785 C 117.877 164.775 117.657 164.625 117.527 164.625 Z M 116.997 165.285 C 116.997 165.355 116.967 165.445 116.917 165.485 L 116.957 165.565 C 117.047 165.485 117.117 165.375 117.117 165.285 L 116.997 165.285 Z M 117.177 165.855 C 117.147 165.835 117.137 165.815 117.157 165.765 C 117.167 165.675 117.287 165.545 117.357 165.485 L 117.177 165.855 Z M 117.327 167.475 C 117.347 167.495 117.367 167.515 117.387 167.535 C 117.407 167.545 117.427 167.545 117.447 167.545 C 117.467 167.545 117.507 167.525 117.537 167.485 L 117.327 167.475 Z M 117.377 165.385 C 117.317 165.365 117.417 165.055 117.497 164.905 L 117.567 164.965 L 117.377 165.385 Z M 117.597 167.325 C 117.597 167.385 117.667 167.465 117.787 167.465 C 117.907 167.465 117.927 167.325 117.877 167.325 C 117.767 167.365 117.657 167.335 117.597 167.325 Z M 119.537 166.635 C 119.437 166.625 119.267 166.675 119.217 166.725 C 119.277 166.755 119.327 166.765 119.387 166.765 C 119.447 166.765 119.487 166.725 119.537 166.635 Z M 119.387 164.355 L 119.377 164.445 C 119.487 164.465 119.597 164.455 119.607 164.385 L 119.387 164.355 Z M 119.757 166.685 C 119.757 166.575 119.837 166.505 119.967 166.505 C 120.007 166.505 120.047 166.515 120.077 166.535 L 119.757 166.685 Z M 120.307 166.185 L 120.127 166.245 C 120.117 166.325 120.287 166.305 120.327 166.285 L 120.307 166.185 Z M 121.157 165.585 L 121.367 165.405 C 121.307 165.325 121.157 165.445 121.077 165.495 L 121.157 165.585 Z" style="fill: rgb(51, 105, 171);"/>
    <path class="st7" d="M 126.267 166.055 L 126.107 165.915 C 125.997 166.005 125.807 166.135 126.017 166.405 C 125.927 166.535 125.837 166.705 125.747 166.885 C 125.647 166.925 125.557 166.995 125.477 167.075 L 125.567 167.295 L 125.527 167.375 L 125.397 167.195 C 125.217 167.435 125.097 167.785 125.037 168.115 L 125.247 168.215 C 125.207 168.395 125.177 168.575 125.167 168.715 C 125.077 168.755 124.937 168.785 124.827 168.785 C 124.457 168.785 124.187 168.655 124.007 168.495 C 123.997 168.385 123.927 168.335 123.847 168.335 C 123.757 168.225 123.727 168.135 123.737 168.105 C 123.917 167.175 124.627 166.135 125.077 164.865 L 124.997 164.795 C 124.657 164.795 124.377 164.725 124.077 164.585 C 124.037 164.655 123.967 164.675 123.877 164.585 L 123.147 163.865 L 123.017 163.865 C 122.337 162.875 122.837 161.725 123.447 160.695 L 123.607 160.765 C 123.627 160.705 123.647 160.665 123.677 160.645 C 123.707 160.615 123.747 160.585 123.777 160.585 C 123.847 160.585 124.397 160.815 124.677 160.945 L 124.857 161.255 C 124.757 161.885 124.357 162.195 124.287 162.845 L 124.117 162.975 C 124.037 163.445 124.087 163.715 124.347 164.065 C 125.087 164.135 125.667 163.785 125.997 163.325 L 127.177 161.665 L 127.267 161.805 L 127.707 161.165 C 127.787 161.055 127.887 161.055 127.987 161.135 C 128.277 160.905 128.517 160.885 128.717 160.975 C 128.707 161.105 128.757 161.165 128.947 161.185 C 129.067 161.355 129.157 161.585 129.207 161.845 C 129.097 162.125 128.917 162.385 128.687 162.655 C 128.257 162.585 128.207 162.785 128.067 163.085 L 128.227 163.165 C 127.797 163.625 127.357 164.065 127.217 164.485 L 127.057 164.345 C 127.047 164.785 126.727 165.075 126.557 165.335 C 126.477 165.455 126.497 165.615 126.477 165.745 L 126.367 165.665 C 126.377 165.585 126.377 165.525 126.327 165.475 C 126.207 165.685 126.137 165.775 126.337 165.985 L 126.267 166.055 Z M 125.017 168.225 L 124.987 168.415 L 125.077 168.455 L 125.147 168.275 L 125.017 168.225 Z M 125.277 168.125 C 125.137 168.025 125.237 167.735 125.417 167.665 L 125.427 167.675 L 125.277 168.125 Z M 126.187 166.565 C 126.157 166.635 126.087 166.685 125.977 166.645 L 126.077 166.465 L 126.187 166.565 Z M 128.317 162.855 C 128.377 162.795 128.477 162.675 128.607 162.745 C 128.537 162.825 128.467 162.915 128.387 162.985 L 128.317 162.855 Z" style="fill: rgb(51, 105, 171);"/>
    <path class="st7" d="M 107.614 174.23 L 107.524 174.15 C 106.764 174.59 105.944 175.19 105.604 174.97 C 105.474 175.19 105.214 175.85 105.164 175.85 C 105.104 175.85 105.144 175.56 105.024 175.77 C 104.904 175.99 104.644 176.44 104.664 176.76 C 104.664 176.83 104.844 176.72 104.824 176.78 L 104.324 178.24 C 104.294 178.35 104.234 178.61 104.224 178.75 C 104.124 178.75 103.514 178.53 103.354 178.31 C 103.174 178.04 103.124 177.65 103.124 177.43 C 103.484 176.33 104.314 174.39 104.914 173.1 C 104.744 172.98 104.584 172.82 104.494 172.71 C 104.574 172.61 104.634 172.45 104.664 172.32 L 104.384 172.25 C 104.464 172.14 104.594 172.06 104.684 172.01 L 104.684 171.83 C 105.744 171.9 105.624 170.6 106.054 170.6 C 106.164 170.6 106.224 170.62 106.294 170.64 C 106.464 170.7 106.604 170.78 106.794 170.81 C 106.884 171.03 106.994 171.23 107.034 171.48 C 107.374 171.49 107.724 171.5 108.124 171.57 C 108.714 171.66 109.064 171.88 109.064 172.51 C 109.064 173.28 108.474 173.63 107.614 174.23 Z M 104.894 176.61 C 104.854 176.61 104.784 176.68 104.754 176.64 C 104.784 176.48 104.914 176.21 104.974 176.18 C 105.134 176.13 104.954 176.47 104.894 176.61 Z M 106.554 174.36 L 106.414 174.36 C 106.274 174.36 106.144 174.52 106.124 174.67 C 106.394 174.59 106.704 174.44 106.934 174.3 C 106.794 174.16 106.734 174.36 106.554 174.36 Z M 106.884 174.18 C 106.974 174.18 106.984 174.29 107.074 174.24 L 107.264 174.13 C 107.204 174.07 106.974 174.05 106.884 174.18 Z M 107.364 173.96 C 107.324 173.99 107.404 174.07 107.524 173.99 C 107.744 173.86 108.144 173.67 108.054 173.55 L 107.364 173.96 Z M 108.254 173.4 C 108.194 173.43 108.144 173.44 108.124 173.51 C 108.094 173.6 108.364 173.53 108.364 173.41 C 108.364 173.38 108.304 173.37 108.254 173.4 Z" style="fill: rgb(51, 105, 171);"/>
    <path class="st7" d="M 111.602 173.142 L 111.482 173.142 C 111.182 173.562 111.002 174.342 110.492 174.622 L 110.532 174.752 L 110.102 175.002 C 109.672 175.622 109.482 176.392 109.232 177.022 C 109.202 177.112 109.052 177.292 109.202 177.332 C 109.232 177.342 109.312 177.112 109.322 177.082 C 109.582 176.502 109.762 175.642 110.162 175.182 C 110.322 175.122 110.202 175.262 110.182 175.292 C 109.792 175.952 109.602 176.702 109.282 177.482 C 109.062 178.002 108.982 178.482 109.042 178.702 C 108.842 178.632 108.662 178.562 108.482 178.462 L 108.482 178.102 C 108.402 178.172 108.372 178.242 108.362 178.372 C 108.102 178.182 107.892 177.932 107.752 177.542 C 107.752 175.542 109.822 172.812 110.622 171.342 C 110.692 171.252 110.832 171.182 110.952 171.182 C 111.062 171.182 111.172 171.222 111.292 171.262 L 111.292 171.532 C 111.512 171.622 111.692 171.872 111.692 172.122 C 111.702 172.412 111.662 172.812 111.602 173.142 Z M 109.002 177.572 L 108.882 177.872 C 108.872 177.902 108.902 178.012 108.972 177.902 L 109.132 177.512 C 108.972 177.362 109.022 177.542 109.002 177.572 Z" style="fill: rgb(51, 105, 171);"/>
    <path class="st7" d="M 118.952 171.942 C 119.072 171.862 119.292 171.812 119.532 171.802 C 119.932 171.792 120.242 171.842 120.432 171.982 L 120.212 172.142 L 120.232 172.182 C 120.312 172.182 120.522 172.112 120.592 172.072 L 120.902 172.402 C 120.322 172.672 119.292 173.432 118.722 174.212 C 118.652 174.302 118.612 174.172 118.542 174.212 C 118.522 174.612 118.282 174.822 118.022 175.242 C 117.962 175.342 117.992 175.482 117.922 175.642 C 117.922 175.712 117.752 175.772 117.722 175.872 C 117.442 176.732 117.062 177.612 116.712 178.532 L 116.212 178.302 L 116.142 178.462 C 115.432 178.272 115.362 177.992 115.262 177.252 C 115.232 176.962 115.322 176.462 115.242 176.222 C 114.972 175.442 115.232 175.112 115.162 174.542 L 115.102 174.112 C 114.762 174.222 114.372 174.552 114.082 175.082 L 114.112 175.262 C 113.552 176.302 113.052 177.752 112.562 178.412 L 112.252 178.412 C 111.932 178.412 111.752 177.672 111.622 177.602 L 111.552 177.112 C 111.492 176.772 111.592 176.642 111.672 176.432 C 112.462 174.522 113.722 173.362 114.602 172.462 C 114.932 172.582 115.842 173.152 116.002 173.562 C 116.132 173.892 116.272 174.592 116.382 175.052 C 117.132 173.742 118.252 172.112 118.492 172.022 L 118.722 171.992 C 118.032 172.672 117.542 173.472 117.282 173.862 C 117.182 174.032 117.142 174.092 117.162 174.102 L 117.232 174.142 C 117.542 173.632 118.292 172.572 118.952 171.942 Z M 114.552 172.722 L 114.312 172.972 C 114.442 173.082 114.572 172.862 114.642 172.782 L 114.552 172.722 Z M 117.862 176.252 L 117.762 176.182 C 117.772 176.022 117.782 175.812 117.922 175.872 L 117.862 176.252 Z M 118.732 173.672 C 118.642 173.802 118.462 174.042 118.572 174.092 L 118.802 173.732 C 118.832 173.712 118.762 173.642 118.732 173.672 Z M 118.682 172.502 L 118.872 172.262 L 118.782 172.222 C 118.722 172.262 118.662 172.342 118.592 172.452 C 118.602 172.462 118.632 172.512 118.682 172.502 Z M 119.022 173.282 L 118.802 173.572 C 118.872 173.562 118.892 173.582 118.902 173.622 L 119.102 173.332 C 119.122 173.322 119.082 173.222 119.022 173.282 Z M 119.872 172.362 L 119.892 172.462 C 120.002 172.382 120.102 172.372 120.082 172.202 L 119.872 172.362 Z" style="fill: rgb(51, 105, 171);"/>
    <path class="st7" d="M 120.272 175.052 C 120.472 174.862 121.102 173.182 122.502 172.472 C 122.622 172.422 122.552 172.302 122.692 172.222 C 123.352 171.812 123.722 171.652 124.722 171.652 C 125.432 171.842 125.292 172.322 125.762 172.612 C 125.762 172.772 125.662 172.872 125.552 172.982 C 125.652 173.012 125.732 173.102 125.772 173.172 C 125.762 173.232 125.712 173.282 125.672 173.292 C 125.572 173.192 125.342 173.012 125.092 173.012 C 123.872 173.012 121.212 175.002 121.402 176.582 C 122.192 176.712 123.392 176.482 123.672 176.352 C 123.812 176.282 123.972 176.112 124.062 175.962 C 124.352 175.502 124.772 174.982 125.132 174.622 C 125.172 174.662 125.232 174.702 125.292 174.732 C 125.202 174.832 125.082 175.042 125.102 175.122 L 125.382 174.792 C 125.612 174.902 125.852 174.982 125.892 175.422 C 126.172 175.422 125.832 175.942 125.932 176.062 C 125.142 176.862 124.862 177.062 124.702 177.202 C 124.602 177.502 124.472 177.892 124.302 178.292 L 124.342 178.372 C 124.522 178.042 124.632 177.692 124.752 177.382 L 124.872 177.322 C 124.582 178.032 124.302 178.932 123.932 179.602 C 123.832 179.782 123.972 179.852 123.872 180.062 C 123.782 180.252 123.682 180.552 123.462 180.552 L 123.272 180.552 L 123.272 180.412 C 122.792 180.512 122.552 180.232 122.462 179.922 L 122.742 179.432 C 122.562 179.472 122.482 179.622 122.432 179.792 L 122.242 179.792 C 122.532 179.182 122.742 178.692 122.952 178.222 C 123.132 177.832 123.252 178.112 123.252 177.502 L 123.052 177.572 C 122.892 177.382 122.522 177.502 122.252 177.712 C 121.312 177.722 120.822 177.532 120.412 176.732 L 120.282 176.732 C 120.072 176.172 120.192 175.702 120.362 175.212 L 120.272 175.052 Z M 121.312 176.112 C 121.222 176.212 121.182 176.312 121.182 176.392 C 121.182 176.462 121.222 176.512 121.292 176.532 L 121.312 176.112 Z M 125.362 174.982 L 125.142 175.282 C 125.302 175.262 125.432 175.142 125.532 175.062 C 125.472 174.952 125.422 174.912 125.362 174.982 Z" style="fill: rgb(51, 105, 171);"/>
    <path class="st7" d="M 134.322 171.742 C 134.392 171.702 134.462 171.712 134.482 171.762 C 133.922 172.222 133.542 173.152 132.952 173.532 C 132.492 173.472 132.622 174.032 132.422 174.042 C 132.262 174.042 132.192 174.262 132.082 174.422 C 131.212 175.642 129.612 177.142 128.392 178.472 L 127.702 178.242 C 127.512 177.912 127.192 177.602 127.182 177.142 C 127.162 176.512 127.362 172.862 127.402 172.212 C 127.412 171.962 127.172 171.522 127.422 171.322 C 128.272 171.662 128.632 172.492 128.672 173.422 C 128.542 173.802 128.772 174.092 128.742 174.412 L 128.622 174.432 C 128.562 174.772 128.492 175.122 128.392 175.442 L 128.572 175.932 C 129.672 174.932 130.572 173.842 131.462 172.652 C 131.932 172.672 131.802 172.242 132.372 172.292 L 132.802 171.822 C 132.892 171.722 133.062 171.742 133.102 171.842 C 132.982 172.012 132.502 172.532 132.062 172.932 C 132.022 172.972 132.082 173.012 132.172 172.972 C 132.592 172.632 133.292 171.892 133.442 171.692 C 133.582 171.702 133.722 171.402 133.922 171.572 C 133.802 171.672 133.592 171.862 133.622 172.052 C 133.732 171.922 133.902 171.742 134.012 171.772 L 134.042 171.782 C 133.872 171.972 133.602 172.332 133.422 172.622 L 133.502 172.642 C 133.682 172.422 133.992 172.022 134.322 171.742 Z M 128.192 175.142 C 128.182 175.232 128.212 175.322 128.292 175.322 L 128.312 175.142 L 128.192 175.142 Z M 128.262 174.822 L 128.222 175.022 L 128.342 175.062 C 128.342 174.962 128.432 174.822 128.262 174.822 Z M 131.572 174.622 L 131.642 174.752 C 131.832 174.552 131.822 174.422 131.742 174.372 L 131.572 174.622 Z M 132.082 173.842 C 132.152 173.892 132.212 173.912 132.262 173.912 C 132.372 173.902 132.442 173.782 132.452 173.632 L 132.082 173.842 Z M 132.842 173.842 L 132.742 173.752 C 132.782 173.642 132.862 173.612 132.932 173.652 L 132.842 173.842 Z M 133.272 172.802 L 133.042 173.032 C 132.912 173.102 132.952 173.262 133.102 173.152 C 133.262 173.032 133.362 172.872 133.392 172.812 C 133.312 172.842 133.282 172.772 133.272 172.802 Z M 134.102 171.522 C 134.132 171.482 134.192 171.442 134.232 171.442 C 134.262 171.442 134.302 171.452 134.332 171.512 C 134.272 171.542 134.222 171.592 134.112 171.712 C 134.092 171.682 134.042 171.682 134.002 171.682 C 134.022 171.632 134.062 171.572 134.102 171.522 Z" style="fill: rgb(51, 105, 171);"/>
    <path class="st7" d="M 137.012 173.142 L 136.892 173.142 C 136.592 173.562 136.412 174.342 135.902 174.622 L 135.942 174.752 L 135.512 175.002 C 135.082 175.622 134.892 176.392 134.642 177.022 C 134.612 177.112 134.462 177.292 134.612 177.332 C 134.642 177.342 134.722 177.112 134.732 177.082 C 134.982 176.502 135.172 175.642 135.572 175.182 C 135.732 175.122 135.612 175.262 135.592 175.292 C 135.202 175.952 135.012 176.702 134.692 177.482 C 134.472 178.002 134.392 178.482 134.442 178.702 C 134.242 178.632 134.062 178.562 133.892 178.462 L 133.892 178.102 C 133.812 178.172 133.782 178.242 133.772 178.372 C 133.512 178.182 133.302 177.932 133.162 177.542 C 133.162 175.542 135.232 172.812 136.032 171.342 C 136.102 171.252 136.242 171.182 136.362 171.182 C 136.472 171.182 136.582 171.222 136.702 171.262 L 136.702 171.532 C 136.922 171.622 137.102 171.872 137.102 172.122 C 137.112 172.412 137.072 172.812 137.012 173.142 Z M 134.412 177.572 L 134.292 177.872 C 134.282 177.902 134.312 178.012 134.382 177.902 L 134.542 177.512 C 134.382 177.362 134.422 177.542 134.412 177.572 Z" style="fill: rgb(51, 105, 171);"/>
    <path class="st7" d="M 140.842 173.142 L 140.722 173.142 C 140.422 173.562 140.242 174.342 139.732 174.622 L 139.772 174.752 L 139.342 175.002 C 138.912 175.622 138.722 176.392 138.472 177.022 C 138.442 177.112 138.292 177.292 138.442 177.332 C 138.472 177.342 138.552 177.112 138.562 177.082 C 138.822 176.502 139.002 175.642 139.402 175.182 C 139.562 175.122 139.442 175.262 139.422 175.292 C 139.032 175.952 138.842 176.702 138.522 177.482 C 138.302 178.002 138.222 178.482 138.282 178.702 C 138.082 178.632 137.902 178.562 137.722 178.462 L 137.722 178.102 C 137.642 178.172 137.612 178.242 137.602 178.372 C 137.342 178.182 137.132 177.932 136.992 177.542 C 136.992 175.542 139.062 172.812 139.862 171.342 C 139.932 171.252 140.072 171.182 140.192 171.182 C 140.302 171.182 140.412 171.222 140.532 171.262 L 140.532 171.532 C 140.752 171.622 140.932 171.872 140.932 172.122 C 140.942 172.412 140.902 172.812 140.842 173.142 Z M 138.242 177.572 L 138.122 177.872 C 138.112 177.902 138.142 178.012 138.212 177.902 L 138.372 177.512 C 138.212 177.362 138.252 177.542 138.242 177.572 Z" style="fill: rgb(51, 105, 171);"/>
    <path class="st7" d="M 147.476 171.661 C 147.596 171.581 147.816 171.531 148.056 171.521 C 148.456 171.511 148.766 171.561 148.956 171.701 L 148.736 171.861 L 148.756 171.901 C 148.836 171.901 149.046 171.831 149.116 171.791 L 149.426 172.121 C 148.846 172.391 147.816 173.151 147.246 173.931 C 147.176 174.021 147.136 173.891 147.066 173.931 C 147.046 174.331 146.806 174.541 146.546 174.961 C 146.486 175.061 146.516 175.201 146.446 175.361 C 146.446 175.431 146.276 175.491 146.246 175.591 C 145.966 176.451 145.586 177.331 145.236 178.251 L 144.736 178.021 L 144.666 178.181 C 143.956 177.991 143.886 177.711 143.786 176.971 C 143.756 176.681 143.846 176.181 143.766 175.941 C 143.496 175.161 143.756 174.831 143.686 174.261 L 143.626 173.831 C 143.286 173.941 142.896 174.271 142.606 174.801 L 142.636 174.981 C 142.086 176.021 141.586 177.471 141.086 178.131 L 140.776 178.131 C 140.456 178.131 140.276 177.391 140.146 177.321 L 140.076 176.831 C 140.016 176.491 140.116 176.361 140.196 176.151 C 140.986 174.241 142.246 173.081 143.126 172.181 C 143.456 172.301 144.366 172.871 144.526 173.281 C 144.656 173.611 144.796 174.311 144.906 174.771 C 145.656 173.461 146.776 171.831 147.016 171.741 L 147.246 171.711 C 146.556 172.391 146.066 173.191 145.806 173.581 C 145.706 173.751 145.666 173.811 145.686 173.821 L 145.756 173.861 C 146.076 173.351 146.826 172.291 147.476 171.661 Z M 143.076 172.441 L 142.836 172.691 C 142.966 172.801 143.086 172.581 143.166 172.501 L 143.076 172.441 Z M 146.386 175.971 L 146.286 175.901 C 146.296 175.741 146.306 175.531 146.446 175.591 L 146.386 175.971 Z M 147.266 173.391 C 147.176 173.521 146.996 173.761 147.106 173.811 L 147.336 173.451 C 147.366 173.431 147.286 173.361 147.266 173.391 Z M 147.206 172.221 L 147.396 171.981 L 147.306 171.941 C 147.246 171.981 147.186 172.061 147.116 172.171 C 147.136 172.181 147.166 172.231 147.206 172.221 Z M 147.556 173.001 L 147.336 173.291 C 147.406 173.281 147.426 173.301 147.436 173.341 L 147.636 173.051 C 147.656 173.041 147.606 172.941 147.556 173.001 Z M 148.396 172.081 L 148.416 172.181 C 148.526 172.101 148.626 172.091 148.606 171.921 L 148.396 172.081 Z" style="fill: rgb(51, 105, 171);"/>
  </g>
</svg>